<?xml version="1.0" encoding="UTF-8" standalone="no"?>
<!-- Created with Inkscape (http://www.inkscape.org/) -->

<svg
   xmlns:dc="http://purl.org/dc/elements/1.1/"
   xmlns:cc="http://creativecommons.org/ns#"
   xmlns:rdf="http://www.w3.org/1999/02/22-rdf-syntax-ns#"
   xmlns:svg="http://www.w3.org/2000/svg"
   xmlns="http://www.w3.org/2000/svg"
   xmlns:sodipodi="http://sodipodi.sourceforge.net/DTD/sodipodi-0.dtd"
   xmlns:inkscape="http://www.inkscape.org/namespaces/inkscape"
   width="225"
   height="380"
   id="svg2"
   version="1.1"
   inkscape:version="0.48.2 r9819"
   sodipodi:docname="XANAsymbol.svg">
  <sodipodi:namedview
     id="base"
     pagecolor="#ffffff"
     bordercolor="#000000"
     borderopacity="1"
     inkscape:pageopacity="0.0"
     inkscape:pageshadow="2"
     inkscape:zoom="1.4142136"
     inkscape:cx="162.29542"
     inkscape:cy="152.89774"
     inkscape:document-units="px"
     inkscape:current-layer="g3143"
     showgrid="false"
     inkscape:window-width="1360"
     inkscape:window-height="719"
     inkscape:window-x="-4"
     inkscape:window-y="-4"
     inkscape:window-maximized="1"
     inkscape:snap-bbox="false"
     inkscape:snap-page="false"
     inkscape:snap-grids="true"
     showguides="true"
     inkscape:guide-bbox="true"
     showborder="true"
     borderlayer="false"
     inkscape:showpageshadow="false">
    <inkscape:grid
       snapvisiblegridlinesonly="true"
       enabled="true"
       visible="true"
       empspacing="5"
       id="grid2987"
       type="xygrid" />
  </sodipodi:namedview>
  <defs
     id="defs4" />
  <metadata
     id="metadata7">
    <rdf:RDF>
      <cc:Work
         rdf:about="">
        <dc:format>image/svg+xml</dc:format>
        <dc:type
           rdf:resource="http://purl.org/dc/dcmitype/StillImage" />
        <dc:title />
      </cc:Work>
    </rdf:RDF>
  </metadata>
  <g
     transform="translate(0,-672.36218)"
     id="layer1"
     inkscape:groupmode="layer"
     inkscape:label="Livello 1">
    <g
       transform="translate(-5,-12)"
       id="g3143">
      <g
         transform="matrix(0.71324243,0,0,0.71324243,-141.24181,554.41412)"
         id="g3167">
        <g
           id="g3163">
          <g
             id="g3160">
            <path
               style="fill:#000000"
               d="m 321.21185,658.94013 0,-56.03223 -2.25,-0.83637 c -1.2375,-0.46001 -2.7,-0.66243 -3.25,-0.44983 -0.55,0.21259 -8.65,13.86431 -18,30.33714 -9.35,16.47283 -17.61693,29.96476 -18.37095,29.98206 -2.35698,0.0541 -61.05558,-34.3933 -61.09329,-35.85271 -0.0197,-0.76128 7.32081,-14.26128 16.31218,-30 8.99138,-15.73871 16.89118,-29.64511 17.55514,-30.90311 1.09745,-2.07936 0.7704,-2.72202 -3.59795,-7.06997 -19.48386,-19.39289 -34.99668,-49.43909 -41.21876,-79.83506 -3.12123,-15.24775 -2.9424,-43.35064 0.37739,-59.3077 3.82235,-18.37271 6.97987,-26.99855 16.6636,-45.52233 21.05922,-40.2837 63.56029,-71.27838 109.87264,-80.12663 l 4.5,-0.85976 0.25854,-54.74564 0.25854,-54.74564 22.48292,0 22.48292,0 0.25854,54.69601 0.25854,54.696 8.5,1.67716 c 20.45494,4.03603 35.14773,9.93311 53.5,21.47269 12.69333,7.98134 20.93826,14.98989 32.04916,27.24315 11.62299,12.81801 13.20539,15.07827 22.2035,31.71499 10.13726,18.74289 14.91961,33.597 17.69412,54.95846 4.13205,31.81331 -1.17516,62.33059 -15.91985,91.54154 -7.02932,13.9259 -19.00731,30.62298 -27.92315,38.92431 -1.43208,1.33338 -2.60378,3.03846 -2.60378,3.78909 0,0.75062 7.875,14.80422 17.5,31.23021 9.625,16.426 17.48391,30.47091 17.46424,31.21092 -0.038,1.42997 -58.76672,35.86337 -61.09329,35.81979 -0.75402,-0.0141 -8.99028,-13.11382 -18.3028,-29.11043 -9.31252,-15.9966 -17.51967,-29.67256 -18.23812,-30.39101 -0.85877,-0.85877 -2.25244,-1.05326 -4.06815,-0.56774 l -2.76188,0.73853 -0.25833,56.17816 -0.25832,56.17817 -40.49168,0 -40.49167,0 0,-56.03222 z m 72.49971,-85.40901 c 12.85719,-3.25363 31.15177,-11.77035 42.47721,-19.77451 8.36517,-5.91203 23.6592,-20.67987 28.67596,-27.68938 5.53709,-7.73651 15.97117,-28.14541 18.70919,-36.59488 3.12983,-9.65858 6.638,-30.92276 6.63773,-40.23346 -2.6e-4,-9.19924 -3.47363,-30.01312 -6.63613,-39.76654 -2.77138,-8.54717 -13.13042,-28.76175 -18.96078,-37 -9.69507,-13.69904 -29.98517,-30.27087 -48.40289,-39.53281 -12.57314,-6.32281 -38.01881,-11.96719 -53.94976,-11.96719 -10.46242,0 -30.16229,3.47409 -41.55024,7.32742 -28.87406,9.77009 -54.51793,31.46669 -70.23263,59.42197 -1.77795,3.16284 -5.67966,13.17561 -8.67047,22.25061 -5.08705,15.43559 -5.48095,17.33863 -6.10613,29.5 -1.06339,20.68605 0.51345,33.28303 6.32141,50.5 7.64231,22.65469 14.26481,33.56736 30.06564,49.54267 15.57008,15.74202 34.61402,27.1113 54.62218,32.60958 15.75427,4.32931 19.52599,4.77379 38,4.47815 15.80037,-0.25286 19.34418,-0.62821 28.99971,-3.07163 z m -37.49971,-20.26285 c -17.83436,-1.4072 -40.99635,-9.70184 -54.07016,-19.36329 -7.24358,-5.35296 -21.87503,-20.16155 -26.18524,-26.50227 -1.51547,-2.2294 -4.98452,-9.13653 -7.709,-15.34918 -22.91801,-52.26014 -1.90868,-110.6163 49.07543,-136.31343 11.94016,-6.01811 20.66845,-8.56775 34.05292,-9.94731 39.32234,-4.053 75.50326,13.0993 97.28948,46.12205 11.96736,18.1397 17.54657,36.27485 17.54657,57.03492 0,30.24812 -11.98945,57.0803 -34.64694,77.53924 -10.70428,9.6656 -17.62009,13.91835 -32.40364,19.92603 -11.03307,4.48357 -31.53042,7.75424 -42.94942,6.85324 z m 26.5,-29.6068 c 7.29411,-2.0531 17.3967,-6.86536 24.40725,-11.62613 8.1301,-5.52105 20.42113,-20.3362 24.88772,-29.99873 9.67453,-20.92885 9.30548,-45.6086 -1.00332,-67.09549 -3.88272,-8.09286 -5.9777,-10.94324 -14.41725,-19.61579 -8.1689,-8.39444 -11.25615,-10.83009 -17.8744,-14.10181 -23.08363,-11.41136 -49.10528,-11.50347 -71.53803,-0.25322 -8.42011,4.22276 -18.44147,12.44223 -24.36962,19.98781 -4.73041,6.02107 -12.33967,20.96107 -14.52289,28.51424 -1.82153,6.30183 -2.46574,25.07908 -1.14932,33.5 2.17469,13.91118 13.85865,35.50749 23.42587,43.29973 11.29973,9.20334 26.96857,17.03303 37.38071,18.67907 7.76028,1.22682 28.57558,0.45482 34.77328,-1.28968 z m -29,-43.93149 c -5.99505,-1.55221 -14.00512,-7.29504 -17.46883,-12.52429 -7.78173,-11.74826 -7.78173,-24.71842 0,-36.46668 3.40939,-5.14724 11.27038,-10.77334 17.58485,-12.58545 15.74192,-4.51758 32.96673,5.57257 37.90605,22.20505 1.86905,6.29377 1.86905,10.93371 0,17.22748 -4.95017,16.669 -21.6357,26.38659 -38.02207,22.14389 z"
               id="path3145"
               inkscape:connector-curvature="0" />
          </g>
        </g>
      </g>
    </g>
  </g>
</svg>
